<svg width="45" height="13" viewBox="0 0 45 13" fill="none" xmlns="http://www.w3.org/2000/svg">
<path d="M6.824 7.584C6.616 7.104 6.312 6.72 5.896 6.416C5.496 6.112 4.856 5.696 3.96 5.184C3.016 4.624 2.376 4.16 2.04 3.76C1.688 3.36 1.544 2.912 1.592 2.416C1.64 1.984 1.832 1.616 2.184 1.296C2.52 0.976 3.016 0.848 3.672 0.927999C4.36 0.992 4.936 1.296 5.4 1.84C5.512 1.968 5.624 2.112 5.72 2.256L6.072 1.968C5.688 1.456 5.304 1.088 4.904 0.896C4.504 0.704 4.088 0.575999 3.624 0.528C2.792 0.447999 2.072 0.624 1.48 1.088C0.872 1.552 0.536 2.176 0.456 2.96C0.392 3.472 0.472 3.968 0.664 4.448C0.872 4.928 1.176 5.328 1.592 5.664C2.024 6 2.648 6.4 3.48 6.88C4.424 7.408 5.064 7.872 5.4 8.272C5.736 8.688 5.864 9.168 5.8 9.712C5.752 10.256 5.48 10.736 5.016 11.12C4.536 11.52 3.912 11.696 3.144 11.584C1.992 11.392 1.336 10.912 0.472 9.68L0.168 10.016C0.792 11.04 2.184 11.888 3.24 12C4.296 12.112 5.16 11.904 5.848 11.392C6.536 10.864 6.936 10.144 7.032 9.2C7.096 8.608 7.032 8.08 6.824 7.584ZM11.563 7.392L13.531 2.56L15.547 7.392H11.563ZM16.555 9.888C16.555 9.888 16.811 10.512 17.419 12H19.227L14.331 0.48H13.995L9.227 12H9.835L11.451 7.776H15.691L16.555 9.888ZM30.7873 0.48V2.496V9.232L24.2432 0.48H22.5152V3.232V9.2V11.712H22.8832V9.2V1.392L30.9633 12H31.2673V2.624V0.48H30.7873ZM36.8224 7.392L38.7904 2.56L40.8064 7.392H36.8224ZM41.8144 9.888C41.8144 9.888 42.0704 10.512 42.6784 12H44.4864L39.5904 0.48H39.2544L34.4864 12H35.0944L36.7104 7.776H40.9504L41.8144 9.888Z" fill="#EAEAEA"/>
</svg>
